
          <svg data-logo="logo" xmlns="http://www.w3.org/2000/svg" viewBox="0 0 192 36">
            <g id="logogram" transform="translate(0, 1) rotate(0)"><path d="M16.0573 0H37.1389L21.6397 22.9729H0.558105L16.0573 0Z" fill="#007AFF"/><path d="M16.9805 25.102L10.9773 34H33.0589L48.5581 11.0271H32.2605L22.7645 25.102H16.9805Z" fill="#312ECB"/></g>
            <g id="logotype" transform="translate(55, 5)"><path fill="#111111" d="M13.64 26L8.31 26L8.31 0.54L14.12 0.54L22.17 13.42Q22.78 14.41 23.41 15.58Q24.05 16.74 24.70 18.16Q25.36 19.57 26.01 21.35L26.01 21.35L25.48 21.35Q25.36 19.93 25.27 18.33Q25.17 16.72 25.11 15.25Q25.04 13.78 25.04 12.76L25.04 12.76L25.04 0.54L30.37 0.54L30.37 26L24.54 26L17.23 14.31Q16.42 12.99 15.74 11.76Q15.06 10.52 14.31 9.01Q13.57 7.51 12.55 5.44L12.55 5.44L13.21 5.44Q13.31 7.29 13.42 8.98Q13.52 10.67 13.58 12.05Q13.64 13.42 13.64 14.29L13.64 14.29L13.64 26ZM41.22 26.38L41.22 26.38Q38.30 26.38 36.18 25.18Q34.06 23.98 32.92 21.78Q31.79 19.57 31.79 16.55L31.79 16.55Q31.79 13.59 32.91 11.37Q34.04 9.15 36.11 7.90Q38.18 6.65 40.96 6.65L40.96 6.65Q42.84 6.65 44.47 7.25Q46.09 7.85 47.32 9.06Q48.55 10.26 49.24 12.07Q49.94 13.88 49.94 16.34L49.94 16.34L49.94 17.78L33.89 17.78L33.89 14.57L47.42 14.57L45.03 15.42Q45.03 13.93 44.58 12.83Q44.13 11.73 43.23 11.12Q42.33 10.52 41.00 10.52L41.00 10.52Q39.68 10.52 38.75 11.13Q37.82 11.75 37.34 12.80Q36.86 13.85 36.86 15.20L36.86 15.20L36.86 17.47Q36.86 19.13 37.42 20.26Q37.97 21.39 38.97 21.95Q39.97 22.51 41.31 22.51L41.31 22.51Q42.21 22.51 42.95 22.26Q43.68 22.00 44.20 21.50Q44.72 20.99 45.00 20.26L45.00 20.26L49.65 21.13Q49.18 22.70 48.04 23.89Q46.89 25.08 45.18 25.73Q43.46 26.38 41.22 26.38ZM55.13 26L49.69 26L57.09 14.19L57.08 18.19L50.07 6.89L55.61 6.89L57.33 9.92Q58.15 11.39 58.81 12.83Q59.47 14.28 60.15 15.64L60.15 15.64L58.21 15.64Q58.91 14.29 59.56 12.84Q60.20 11.39 61.06 9.92L61.06 9.92L62.85 6.89L68.29 6.89L61.14 18.24L61.14 14.29L68.56 26L63.06 26L60.94 22.39Q60.10 20.94 59.43 19.49Q58.75 18.04 58.05 16.70L58.05 16.70L60.02 16.70Q59.35 18.04 58.71 19.49Q58.07 20.94 57.25 22.39L57.25 22.39L55.13 26ZM67.35 6.89L78.68 6.89L78.68 10.81L67.35 10.81L67.35 6.89ZM69.98 20.86L69.98 2.35L75.11 2.35L75.11 20.41Q75.11 21.32 75.51 21.75Q75.91 22.19 76.85 22.19L76.85 22.19Q77.14 22.19 77.67 22.11Q78.20 22.04 78.47 21.97L78.47 21.97L79.21 25.81Q78.35 26.07 77.51 26.17Q76.66 26.27 75.89 26.27L75.89 26.27Q73.02 26.27 71.50 24.87Q69.98 23.47 69.98 20.86L69.98 20.86ZM87.24 26.34L87.24 26.34Q83.27 26.34 80.99 24.27Q78.71 22.19 78.71 18.34L78.71 18.34L78.71 16.86L83.92 16.86L83.92 18.43Q83.92 20.26 84.82 21.20Q85.72 22.14 87.24 22.14L87.24 22.14Q88.76 22.14 89.65 21.20Q90.54 20.26 90.54 18.41L90.54 18.41L90.54 0.54L95.70 0.54L95.70 18.33Q95.70 22.19 93.44 24.27Q91.18 26.34 87.24 26.34ZM106.46 26.38L106.46 26.38Q103.59 26.38 101.49 25.14Q99.39 23.90 98.25 21.68Q97.11 19.47 97.11 16.53L97.11 16.53Q97.11 13.56 98.25 11.35Q99.39 9.13 101.49 7.89Q103.59 6.65 106.46 6.65L106.46 6.65Q109.35 6.65 111.44 7.89Q113.54 9.13 114.67 11.35Q115.81 13.56 115.81 16.53L115.81 16.53Q115.81 19.47 114.67 21.68Q113.54 23.90 111.44 25.14Q109.35 26.38 106.46 26.38ZM106.46 22.34L106.46 22.34Q107.83 22.34 108.75 21.58Q109.67 20.82 110.14 19.50Q110.60 18.17 110.60 16.52L110.60 16.52Q110.60 14.82 110.14 13.51Q109.67 12.19 108.75 11.44Q107.83 10.69 106.46 10.69L106.46 10.69Q105.09 10.69 104.18 11.44Q103.27 12.19 102.80 13.51Q102.34 14.82 102.34 16.52L102.34 16.52Q102.34 18.17 102.80 19.50Q103.27 20.82 104.18 21.58Q105.09 22.34 106.46 22.34ZM127.80 26.32L127.80 26.32Q126.25 26.32 125.17 25.79Q124.10 25.27 123.42 24.49Q122.75 23.71 122.39 22.94L122.39 22.94L122.15 22.94L122.15 26L117.11 26L117.11 0.54L122.23 0.54L122.23 10.11L122.39 10.11Q122.75 9.35 123.40 8.55Q124.06 7.75 125.14 7.20Q126.21 6.65 127.84 6.65L127.84 6.65Q129.96 6.65 131.72 7.75Q133.48 8.84 134.53 11.03Q135.58 13.22 135.58 16.48L135.58 16.48Q135.58 19.66 134.55 21.86Q133.53 24.05 131.77 25.19Q130.01 26.32 127.80 26.32ZM126.23 22.21L126.23 22.21Q127.56 22.21 128.48 21.47Q129.39 20.74 129.86 19.44Q130.33 18.14 130.33 16.46L130.33 16.46Q130.33 14.79 129.86 13.51Q129.39 12.23 128.49 11.49Q127.58 10.76 126.23 10.76L126.23 10.76Q124.92 10.76 123.99 11.47Q123.07 12.17 122.59 13.45Q122.11 14.72 122.11 16.46L122.11 16.46Q122.11 18.19 122.60 19.48Q123.09 20.77 124.01 21.49Q124.93 22.21 126.23 22.21Z"/></g>
            
          </svg>
        